<svg width="195" height="40" viewBox="0 0 195 40" fill="none" xmlns="http://www.w3.org/2000/svg">
<path fill-rule="evenodd" clip-rule="evenodd" d="M80.3195 28.293C80.7972 27.1329 81.1384 25.9728 81.2067 24.8127C81.4114 23.6526 81.4114 22.2878 81.4114 20.5818V19.1487V17.7157C81.4114 16.587 81.3408 15.6347 81.2758 14.7574C81.2504 14.4147 81.2258 14.0835 81.2067 13.7577C81.002 12.6658 80.729 11.5057 80.3195 10.4821C79.9101 9.4585 79.2959 8.50312 78.4088 7.61599C76.5663 5.84172 74.0414 4.95459 70.9023 4.95459H60.7344V33.957H70.9023C74.1096 33.957 76.5663 33.1381 78.4088 31.2956C79.2959 30.4085 79.9101 29.4531 80.3195 28.293ZM113.621 30.4767H111.915C110.345 30.4767 109.594 29.7261 109.594 27.9518V16.8285H113.621V13.6894H109.594V7.47949H105.5V13.6894H103.18V16.8285H105.432V28.293C105.432 29.3166 105.705 30.272 106.114 31.1591C106.523 32.0463 107.138 32.7287 108.025 33.2746C108.775 33.7523 109.867 34.0252 111.096 34.0252H113.621V30.4767ZM128.019 34.0252V32.1827C127.268 32.9334 126.518 33.5476 125.63 33.8205C124.743 34.0935 123.788 34.2982 122.491 34.2982C121.263 34.2982 120.171 34.0935 119.216 33.8205C118.26 33.5476 117.51 33.0699 116.896 32.3875C115.872 31.2274 115.258 29.7943 115.258 27.9518C115.258 26.7917 115.531 25.7681 116.145 24.8809C116.691 23.9938 117.51 23.2432 118.533 22.7655C119.557 22.2878 120.922 22.0148 122.491 22.0148H127.951V20.5818C127.951 19.2169 127.541 18.2616 126.927 17.7156C126.245 17.1697 125.085 16.7603 123.447 16.7603C122.287 16.7603 121.4 16.965 120.785 17.238C120.171 17.5109 119.557 17.9886 118.943 18.7393L116.281 16.1461C117.237 14.986 118.329 14.2353 119.352 13.8259C120.512 13.3482 121.945 13.1435 123.651 13.1435C129.315 13.1435 132.182 15.5319 132.182 20.2406V34.0252H128.087H128.019ZM127.885 24.881H127.681V24.8127H127.885V24.881ZM127.681 24.881V26.4505C127.681 27.8836 127.339 28.9754 126.794 29.5214C126.316 29.9991 125.702 30.272 125.156 30.4767C124.61 30.6132 123.859 30.6815 122.972 30.6815C120.447 30.6815 119.219 29.7261 119.219 27.8153C119.219 26.86 119.492 26.1093 120.174 25.6316C120.857 25.1539 121.744 24.881 122.972 24.881H127.681ZM96.4226 24.881H96.2861V24.8127H96.4226V24.881ZM96.2861 24.881V26.4505C96.2861 27.8836 95.9449 28.9754 95.399 29.5214C94.9213 29.9991 94.3071 30.272 93.7612 30.4767C93.2153 30.6132 92.4646 30.6815 91.5775 30.6815C89.0526 30.6815 87.8242 29.7261 87.8242 27.8153C87.8242 26.86 88.0972 26.1093 88.7796 25.6316C89.462 25.1539 90.3491 24.881 91.5775 24.881H96.2861ZM96.5618 32.1827V34.0252H96.6301H100.725V20.2406C100.725 15.5319 97.8584 13.1435 92.1944 13.1435C90.4884 13.1435 89.0553 13.3482 87.8952 13.8259C86.8716 14.2353 85.7798 14.986 84.8244 16.1461L87.4858 18.7393C88.1 17.9886 88.6459 17.5109 89.3283 17.238C89.9425 16.965 90.8296 16.7603 91.9897 16.7603C93.6275 16.7603 94.7876 17.1697 95.47 17.7156C96.0842 18.2616 96.4936 19.2169 96.4936 20.5818V22.0148H91.0343C89.4648 22.0148 88.1 22.2878 87.0763 22.7655C86.0527 23.2432 85.2338 23.9938 84.6879 24.8809C84.0737 25.7681 83.8008 26.7917 83.8008 27.9518C83.8008 29.7943 84.4149 31.2274 85.4386 32.3875C86.0527 33.0699 86.8034 33.5476 87.7588 33.8205C88.7141 34.0935 89.806 34.2982 91.0343 34.2982C92.3309 34.2982 93.2863 34.0935 94.1734 33.8205C95.0605 33.5476 95.8112 32.9334 96.5618 32.1827ZM76.9776 15.3954C76.9093 14.5083 76.7728 13.6894 76.5681 12.8023C76.3634 12.0516 76.0222 11.3692 75.5445 10.7551C74.3844 9.39023 72.6784 8.70782 70.6312 8.70782H65.1719V29.8625H70.5629C72.6784 29.8625 74.3162 29.1801 75.4763 27.9518C76.1587 27.2011 76.6364 26.1093 76.7046 24.8809C76.9093 23.5161 76.9776 21.7419 76.9776 19.2169V15.3954Z" fill="#00B1E2"/>
<path fill-rule="evenodd" clip-rule="evenodd" d="M146.377 6.66075C148.288 6.66075 149.926 7.27492 151.29 8.50326C152.655 9.66335 153.611 11.1647 153.952 13.1436H156.135C155.794 11.4376 155.18 9.86808 154.293 8.63974C153.338 7.4114 152.177 6.45603 150.813 5.77362C149.516 5.15945 147.947 4.75 146.241 4.75C144.807 4.75 143.511 5.02296 142.146 5.50065C140.918 6.04658 139.826 6.72899 138.871 7.68436C137.983 8.50326 137.437 9.39039 137.028 10.3458C136.619 11.3011 136.414 12.393 136.346 13.6213C136.277 14.8497 136.277 16.7604 136.277 19.3536C136.277 21.9467 136.277 23.8575 136.346 25.0858C136.482 26.3142 136.619 27.406 137.028 28.3614C137.437 29.3168 137.983 30.1357 138.871 31.0228C139.758 31.9782 140.849 32.7288 142.146 33.2065C143.443 33.6842 144.739 33.9571 146.104 33.9571C147.81 33.9571 149.311 33.6159 150.676 32.9335C152.109 32.2511 153.269 31.2957 154.156 30.0674C155.044 28.8391 155.726 27.2695 155.999 25.5635H153.884C153.611 26.9283 153.133 28.0884 152.382 29.0438C151.632 30.1357 150.744 30.8863 149.721 31.364C148.697 31.8417 147.401 32.1146 146.172 32.1146C145.08 32.1146 144.125 31.9782 143.17 31.5687C142.146 31.1593 141.395 30.6816 140.645 29.9309C139.962 29.385 139.485 28.6343 139.212 27.7472C138.939 26.8601 138.734 25.9047 138.666 24.6764C138.598 23.448 138.598 21.742 138.598 19.4218C138.598 18.5535 138.618 17.7478 138.637 17.028C138.652 16.4466 138.666 15.9212 138.666 15.4638C138.666 14.4402 138.734 13.4848 138.939 12.5977C139.143 11.7106 139.348 11.0964 139.621 10.4822C139.894 9.86807 140.372 9.32215 140.849 8.84446C141.532 8.16205 142.419 7.54788 143.374 7.20668C144.33 6.86547 145.353 6.66075 146.377 6.66075ZM160.98 7.54787V4.95471H163.574V7.54787H160.98ZM174.766 32.1829H176.199V34.0254H174.356C173.401 34.0254 172.514 33.8207 171.763 33.343C171.081 32.8653 170.535 32.3194 170.125 31.5005C169.716 30.7498 169.579 29.8627 169.579 28.8391V15.8733H166.918V14.372H169.579V8.16205H171.695V14.372H176.131V15.8733H171.695V28.8391C171.695 31.0228 172.787 32.1829 174.766 32.1829ZM181.317 24.6764C181.326 27.1675 181.872 29.0555 182.954 30.3404C183.978 31.7052 185.616 32.3876 187.663 32.3876C188.823 32.3876 189.778 32.1829 190.529 31.8417C191.28 31.4322 192.167 30.8863 193.054 29.9992L194.555 31.2275C193.532 32.2511 192.44 33.07 191.416 33.5477C190.393 34.0254 189.028 34.2301 187.458 34.2301C185.616 34.2301 184.114 33.8206 182.886 33.07C181.658 32.3193 180.702 31.1593 180.088 29.7262C179.406 28.2249 179.133 26.3824 179.133 24.1987C179.133 22.5609 179.338 21.1961 179.679 19.9677C180.088 18.7394 180.566 17.6475 181.18 16.8286C181.862 15.9415 182.681 15.3273 183.705 14.7814C184.729 14.2355 185.82 14.099 186.981 14.099C188.209 14.099 189.301 14.3037 190.256 14.7814C191.211 15.1909 192.099 15.805 192.781 16.6922C193.463 17.5793 194.009 18.5347 194.282 19.6948C194.692 20.8549 194.828 22.2197 194.828 23.721V24.6764H181.317ZM192.427 19.8313C192.557 20.2355 192.666 20.5767 192.713 20.8549C192.752 21.0914 192.769 21.4417 192.789 21.8665L192.789 21.8666V21.8667V21.8667C192.804 22.1773 192.82 22.5275 192.849 22.9021H181.316C181.316 22.172 181.409 21.5806 181.48 21.1278C181.495 21.0304 181.509 20.9395 181.521 20.8549C181.589 20.3772 181.726 19.8995 181.999 19.2171C182.408 18.2617 183.091 17.4428 184.046 16.8287C185.001 16.2145 185.957 15.9415 187.117 15.9415C188.277 15.9415 189.164 16.2827 190.188 16.8287C191.211 17.3746 191.826 18.1935 192.235 19.2171C192.301 19.4358 192.366 19.6406 192.427 19.8313ZM161.184 34.0254H163.299V14.372H161.184V34.0254Z" fill="white"/>
<path d="M0 29.9306C0.341205 29.9988 0.68241 30.0671 1.09186 30.1353C19.244 33.7521 46.2674 28.9752 49.7477 20.1721C52.4773 13.0751 37.2596 8.02524 19.4487 8.63941C19.1075 8.63941 18.7663 8.63941 18.4251 8.70765C27.9106 9.66302 36.4407 13.4163 33.0286 19.285C29.2754 25.6997 13.4435 29.9988 0 29.9306Z" fill="#00B1E2"/>
<path d="M39.7185 29.8626C36.5795 48.9701 20.0651 37.5739 16.1754 24.2669C10.5114 10.4822 15.5612 -7.26048 29.6871 3.11215C18.0179 -2.21065 16.7896 13.2801 21.7712 24.3351C25.9339 33.5476 34.9417 39.4846 39.3091 29.9991C39.5138 29.9309 39.6503 29.9309 39.7185 29.8626Z" fill="white"/>
</svg>
