<svg width="176" height="36" viewBox="0 0 176 36" fill="none" xmlns="http://www.w3.org/2000/svg">
<path fill-rule="evenodd" clip-rule="evenodd" d="M72.5251 25.4645C72.955 24.4205 73.2621 23.3764 73.3235 22.3323C73.5078 21.2882 73.5078 20.0599 73.5078 18.5244V17.2347V15.9449C73.5078 14.9291 73.4442 14.0721 73.3857 13.2825C73.3629 12.9741 73.3408 12.676 73.3235 12.3827C73.1393 11.4001 72.8936 10.356 72.5251 9.43473C72.1566 8.51348 71.6038 7.65364 70.8054 6.85522C69.1472 5.25838 66.8747 4.45996 64.0496 4.45996H54.8984V30.5621H64.0496C66.9361 30.5621 69.1472 29.8251 70.8054 28.1669C71.6038 27.3685 72.1566 26.5086 72.5251 25.4645ZM102.498 27.4314H100.963C99.5503 27.4314 98.8748 26.7558 98.8748 25.159V15.148H102.498V12.3228H98.8748V6.73389H95.1897V12.3228H93.1016V15.148H95.1283V25.466C95.1283 26.3873 95.374 27.2471 95.7425 28.0456C96.111 28.844 96.6637 29.4581 97.4622 29.9495C98.1377 30.3794 99.1204 30.6251 100.226 30.6251H102.498V27.4314ZM115.454 30.6241V28.9659C114.778 29.6415 114.103 30.1942 113.304 30.4399C112.506 30.6856 111.646 30.8698 110.479 30.8698C109.373 30.8698 108.391 30.6856 107.531 30.4399C106.671 30.1942 105.996 29.7643 105.443 29.1501C104.522 28.106 103.969 26.8163 103.969 25.158C103.969 24.1139 104.214 23.1927 104.767 22.3943C105.259 21.5959 105.996 20.9203 106.917 20.4903C107.838 20.0604 109.066 19.8148 110.479 19.8148H115.392V18.525C115.392 17.2967 115.024 16.4368 114.471 15.9455C113.857 15.4542 112.813 15.0857 111.339 15.0857C110.295 15.0857 109.496 15.2699 108.944 15.5156C108.391 15.7612 107.838 16.1912 107.285 16.8668L104.89 14.5329C105.75 13.4888 106.733 12.8132 107.654 12.4447C108.698 12.0148 109.988 11.8306 111.523 11.8306C116.621 11.8306 119.2 13.9802 119.2 18.2179V30.6241H115.515H115.454ZM115.331 22.3954H115.147V22.334H115.331V22.3954ZM115.147 22.3954V23.808C115.147 25.0977 114.84 26.0804 114.349 26.5718C113.919 27.0017 113.366 27.2473 112.875 27.4316C112.383 27.5544 111.708 27.6158 110.909 27.6158C108.637 27.6158 107.531 26.756 107.531 25.0363C107.531 24.1765 107.777 23.5009 108.391 23.071C109.005 22.6411 109.804 22.3954 110.909 22.3954H115.147ZM87.0198 22.3954H86.8969V22.334H87.0198V22.3954ZM86.8969 22.3954V23.808C86.8969 25.0977 86.5899 26.0804 86.0985 26.5718C85.6686 27.0017 85.1159 27.2473 84.6245 27.4316C84.1332 27.5544 83.4576 27.6158 82.6592 27.6158C80.3868 27.6158 79.2812 26.756 79.2812 25.0363C79.2812 24.1765 79.5269 23.5009 80.1411 23.071C80.7553 22.6411 81.5537 22.3954 82.6592 22.3954H86.8969ZM87.1412 28.9659V30.6241H87.2026H90.8876V18.2179C90.8876 13.9802 88.3081 11.8306 83.2105 11.8306C81.6751 11.8306 80.3854 12.0148 79.3413 12.4447C78.42 12.8132 77.4373 13.4888 76.5775 14.5329L78.9728 16.8668C79.5255 16.1912 80.0169 15.7612 80.631 15.5156C81.1838 15.2699 81.9822 15.0857 83.0263 15.0857C84.5003 15.0857 85.5444 15.4542 86.1585 15.9455C86.7113 16.4368 87.0798 17.2967 87.0798 18.525V19.8148H82.1664C80.7539 19.8148 79.5255 20.0604 78.6043 20.4903C77.683 20.9203 76.946 21.5959 76.4547 22.3943C75.9019 23.1927 75.6562 24.1139 75.6562 25.158C75.6562 26.8163 76.209 28.106 77.1303 29.1501C77.683 29.7643 78.3586 30.1942 79.2184 30.4399C80.0783 30.6856 81.0609 30.8698 82.1664 30.8698C83.3334 30.8698 84.1932 30.6856 84.9916 30.4399C85.79 30.1942 86.4656 29.6415 87.1412 28.9659ZM69.5157 13.8567C69.4543 13.0583 69.3315 12.3213 69.1472 11.5229C68.963 10.8473 68.6559 10.2332 68.226 9.6804C67.1819 8.45206 65.6465 7.83789 63.804 7.83789H58.8906V26.8771H63.7426C65.6465 26.8771 67.1205 26.263 68.1646 25.1575C68.7787 24.4819 69.2087 23.4992 69.2701 22.3937C69.4543 21.1654 69.5157 19.5685 69.5157 17.2961V13.8567Z" fill="#1FC3FF"/>
<path fill-rule="evenodd" clip-rule="evenodd" d="M131.738 5.99799C133.458 5.99799 134.932 6.55075 136.16 7.65625C137.388 8.70034 138.248 10.0515 138.555 11.8326H140.521C140.214 10.2972 139.661 8.88459 138.862 7.77908C138.003 6.67358 136.959 5.81374 135.73 5.19957C134.563 4.64682 133.151 4.27832 131.615 4.27832C130.326 4.27832 129.159 4.52399 127.93 4.95391C126.825 5.44524 125.842 6.05941 124.982 6.91925C124.184 7.65625 123.693 8.45467 123.324 9.31451C122.956 10.1743 122.771 11.157 122.71 12.2625C122.648 13.368 122.648 15.0877 122.648 17.4215C122.648 19.7554 122.648 21.4751 122.71 22.5806C122.833 23.6861 122.956 24.6687 123.324 25.5286C123.693 26.3884 124.184 27.1254 124.982 27.9238C125.781 28.7837 126.763 29.4592 127.93 29.8892C129.097 30.3191 130.264 30.5648 131.492 30.5648C133.028 30.5648 134.379 30.2577 135.607 29.6435C136.897 29.0293 137.941 28.1695 138.74 27.064C139.538 25.9585 140.152 24.5459 140.398 23.0105H138.494C138.248 24.2388 137.818 25.2829 137.143 26.1427C136.467 27.1254 135.669 27.801 134.748 28.2309C133.826 28.6608 132.659 28.9065 131.554 28.9065C130.571 28.9065 129.711 28.7837 128.852 28.4152C127.93 28.0467 127.255 27.6167 126.579 26.9412C125.965 26.4498 125.535 25.7742 125.289 24.9758C125.044 24.1774 124.859 23.3176 124.798 22.2121C124.737 21.1066 124.737 19.5711 124.737 17.483C124.737 16.7015 124.755 15.9764 124.772 15.3285C124.786 14.8052 124.798 14.3324 124.798 13.9208C124.798 12.9995 124.859 12.1397 125.044 11.3413C125.228 10.5428 125.412 9.99009 125.658 9.43734C125.904 8.88459 126.333 8.39325 126.763 7.96333C127.378 7.34917 128.176 6.79641 129.036 6.48933C129.896 6.18224 130.817 5.99799 131.738 5.99799ZM144.883 6.79722V4.46338H147.217V6.79722H144.883ZM157.29 28.9688H158.579V30.6271H156.921C156.061 30.6271 155.263 30.4429 154.587 30.0129C153.973 29.583 153.482 29.0917 153.113 28.3547C152.745 27.6791 152.622 26.8807 152.622 25.9594V14.2902H150.227V12.939H152.622V7.3501H154.526V12.939H158.518V14.2902H154.526V25.9594C154.526 27.9248 155.508 28.9688 157.29 28.9688ZM163.184 22.2125C163.193 24.4545 163.684 26.1537 164.658 27.3101C165.579 28.5384 167.053 29.1526 168.896 29.1526C169.94 29.1526 170.8 28.9684 171.475 28.6613C172.151 28.2928 172.949 27.8014 173.748 27.003L175.099 28.1085C174.178 29.0298 173.195 29.7668 172.274 30.1967C171.353 30.6266 170.124 30.8109 168.712 30.8109C167.053 30.8109 165.702 30.4424 164.597 29.7668C163.491 29.0912 162.631 28.0471 162.079 26.7573C161.464 25.4062 161.219 23.7479 161.219 21.7826C161.219 20.3086 161.403 19.0802 161.71 17.9747C162.079 16.8692 162.509 15.8865 163.061 15.1495C163.675 14.3511 164.412 13.7984 165.334 13.307C166.255 12.8157 167.238 12.6929 168.282 12.6929C169.387 12.6929 170.37 12.8771 171.23 13.307C172.09 13.6755 172.888 14.2283 173.502 15.0267C174.116 15.8251 174.608 16.685 174.853 17.7291C175.222 18.7731 175.345 20.0015 175.345 21.3527V22.2125H163.184ZM173.183 17.8519C173.3 18.2156 173.398 18.5227 173.44 18.7731C173.476 18.9859 173.491 19.3013 173.509 19.6835C173.522 19.9631 173.537 20.2784 173.563 20.6156H163.184C163.184 19.9585 163.267 19.4263 163.33 19.0188C163.344 18.9311 163.357 18.8492 163.368 18.7731C163.429 18.3432 163.552 17.9133 163.798 17.2991C164.166 16.4392 164.78 15.7022 165.64 15.1495C166.5 14.5967 167.36 14.3511 168.404 14.3511C169.448 14.3511 170.247 14.6582 171.168 15.1495C172.089 15.6408 172.642 16.3778 173.01 17.2991C173.069 17.4954 173.128 17.6792 173.183 17.8504L173.183 17.8505L173.183 17.851L173.183 17.8517L173.183 17.8519ZM145.062 30.627H146.966V12.939H145.062V30.627Z" fill="white"/>
<path d="M0 26.937C0.307084 26.9985 0.614169 27.0599 0.98267 27.1213C17.3196 30.3764 41.6407 26.0772 44.7729 18.1544C47.2296 11.7671 33.5336 7.22223 17.5038 7.77498C17.1967 7.77498 16.8896 7.77498 16.5826 7.83639C25.1195 8.69623 32.7966 12.0742 29.7258 17.356C26.3478 23.1292 12.0991 26.9985 0 26.937Z" fill="#1FC3FF"/>
<path d="M35.7459 26.8764C32.9207 44.0731 18.0578 33.8165 14.5571 21.8402C9.45948 9.43396 14.0043 -6.53443 26.7176 2.80094C16.2153 -1.98958 15.1098 11.9521 19.5933 21.9016C23.3397 30.1929 31.4467 35.5361 35.3774 26.9992C35.5617 26.9378 35.6845 26.9378 35.7459 26.8764Z" fill="white"/>
</svg>
