<svg width="28" height="28" viewBox="0 0 28 28" fill="none" xmlns="http://www.w3.org/2000/svg">
<path d="M19 9.8H23.2V23.2H6.8V4.8H18.2V9V9.8H19Z" stroke="#243B54" stroke-width="1.6"/>
<path d="M18.5 4.5L23.5 9.5" stroke="#243B54" stroke-width="1.6"/>
<path d="M4 14L15.5 14V20.5H4V14Z" fill="#243B54"/>
<path d="M6.72005 15.5C6.95672 15.5 7.16505 15.5483 7.34505 15.645C7.52505 15.7383 7.66339 15.8733 7.76005 16.05C7.86005 16.2233 7.91005 16.4233 7.91005 16.65C7.91005 16.8733 7.85839 17.07 7.75505 17.24C7.65172 17.41 7.50672 17.5416 7.32005 17.635C7.13339 17.7283 6.91839 17.775 6.67505 17.775H6.14505C6.12839 17.775 6.12005 17.7833 6.12005 17.8V18.925C6.12005 18.9483 6.11339 18.9666 6.10005 18.98C6.08672 18.9933 6.06839 19 6.04505 19H5.25505C5.23172 19 5.21339 18.9933 5.20005 18.98C5.18672 18.9666 5.18005 18.9483 5.18005 18.925V15.575C5.18005 15.5516 5.18672 15.5333 5.20005 15.52C5.21339 15.5066 5.23172 15.5 5.25505 15.5H6.72005ZM6.56505 17.025C6.68839 17.025 6.78672 16.9933 6.86005 16.93C6.93672 16.8633 6.97505 16.7766 6.97505 16.67C6.97505 16.56 6.93672 16.4716 6.86005 16.405C6.78672 16.3383 6.68839 16.305 6.56505 16.305H6.14505C6.12839 16.305 6.12005 16.3133 6.12005 16.33V17C6.12005 17.0166 6.12839 17.025 6.14505 17.025H6.56505Z" fill="white"/>
<path d="M10.2531 15.575C10.2531 15.5516 10.2598 15.5333 10.2731 15.52C10.2864 15.5066 10.3048 15.5 10.3281 15.5H11.1181C11.1414 15.5 11.1598 15.5066 11.1731 15.52C11.1864 15.5333 11.1931 15.5516 11.1931 15.575V18.925C11.1931 18.9483 11.1864 18.9666 11.1731 18.98C11.1598 18.9933 11.1414 19 11.1181 19H10.3631C10.3231 19 10.2931 18.9833 10.2731 18.95L9.2531 17.25C9.24643 17.24 9.23977 17.2366 9.2331 17.24C9.22643 17.24 9.2231 17.2466 9.2231 17.26L9.2331 18.925C9.2331 18.9483 9.22643 18.9666 9.2131 18.98C9.19977 18.9933 9.18143 19 9.1581 19H8.3681C8.34477 19 8.32643 18.9933 8.3131 18.98C8.29977 18.9666 8.2931 18.9483 8.2931 18.925V15.575C8.2931 15.5516 8.29977 15.5333 8.3131 15.52C8.32643 15.5066 8.34477 15.5 8.3681 15.5H9.1231C9.1631 15.5 9.1931 15.5166 9.2131 15.55L10.2281 17.25C10.2348 17.26 10.2414 17.265 10.2481 17.265C10.2548 17.2616 10.2581 17.2533 10.2581 17.24L10.2531 15.575Z" fill="white"/>
<path d="M13.0191 19.04C12.7458 19.04 12.5041 18.985 12.2941 18.875C12.0874 18.765 11.9258 18.61 11.8091 18.41C11.6958 18.21 11.6391 17.98 11.6391 17.72V16.775C11.6391 16.515 11.6958 16.2866 11.8091 16.09C11.9258 15.89 12.0874 15.735 12.2941 15.625C12.5041 15.515 12.7458 15.46 13.0191 15.46C13.2858 15.46 13.5241 15.5133 13.7341 15.62C13.9441 15.7233 14.1058 15.865 14.2191 16.045C14.3358 16.225 14.3941 16.4216 14.3941 16.635V16.64C14.3941 16.6633 14.3874 16.6816 14.3741 16.695C14.3608 16.7083 14.3425 16.715 14.3191 16.715H13.5341C13.4841 16.715 13.4591 16.7 13.4591 16.67C13.4591 16.56 13.4191 16.465 13.3391 16.385C13.2624 16.305 13.1558 16.265 13.0191 16.265C12.8858 16.265 12.7791 16.31 12.6991 16.4C12.6191 16.4866 12.5791 16.6033 12.5791 16.75V17.75C12.5791 17.8933 12.6241 18.01 12.7141 18.1C12.8074 18.19 12.9224 18.235 13.0591 18.235C13.1824 18.235 13.2824 18.2016 13.3591 18.135C13.4391 18.065 13.4791 17.97 13.4791 17.85V17.785C13.4791 17.7683 13.4708 17.76 13.4541 17.76H13.0141C12.9908 17.76 12.9724 17.7533 12.9591 17.74C12.9458 17.7266 12.9391 17.7083 12.9391 17.685V17.085C12.9391 17.0616 12.9458 17.0433 12.9591 17.03C12.9724 17.0166 12.9908 17.01 13.0141 17.01H14.3191C14.3425 17.01 14.3608 17.0166 14.3741 17.03C14.3874 17.0433 14.3941 17.0616 14.3941 17.085V17.77C14.3941 18.0166 14.3358 18.2366 14.2191 18.43C14.1058 18.6233 13.9441 18.7733 13.7341 18.88C13.5274 18.9866 13.2891 19.04 13.0191 19.04Z" fill="white"/>
</svg>
