<svg width="28" height="28" viewBox="0 0 28 28" fill="none" xmlns="http://www.w3.org/2000/svg">
<path fill-rule="evenodd" clip-rule="evenodd" d="M13.5129 5C13.9548 5 14.3129 5.35817 14.3129 5.8V19.8686L18.6602 15.5214C18.9726 15.209 19.4791 15.209 19.7916 15.5214C20.104 15.8338 20.104 16.3403 19.7916 16.6527L14.0786 22.3657C13.9286 22.5157 13.7251 22.6 13.5129 22.6C13.3008 22.6 13.0973 22.5157 12.9473 22.3657L7.23431 16.6527C6.9219 16.3403 6.9219 15.8338 7.23431 15.5214C7.54673 15.209 8.05327 15.209 8.36569 15.5214L12.7129 19.8686V5.8C12.7129 5.35817 13.0711 5 13.5129 5Z" fill="#243B54"/>
</svg>
