<svg width="28" height="28" viewBox="0 0 28 28" fill="none" xmlns="http://www.w3.org/2000/svg">
<path d="M19 9.8H23.2V23.2H6.8V4.8H18.2V9V9.8H19Z" stroke="#243B54" stroke-width="1.6"/>
<path d="M18.5 4.5L23.5 9.5" stroke="#243B54" stroke-width="1.6"/>
<path d="M4 14H15V20.5H4V14Z" fill="#243B54"/>
<path d="M6.52 19.04C6.24 19.04 5.995 18.995 5.785 18.905C5.575 18.8116 5.41167 18.68 5.295 18.51C5.18167 18.34 5.125 18.1433 5.125 17.92V17.85C5.125 17.8266 5.13167 17.8083 5.145 17.795C5.15833 17.7816 5.17667 17.775 5.2 17.775H5.975C5.99833 17.775 6.01667 17.7816 6.03 17.795C6.04333 17.8083 6.05 17.8266 6.05 17.85V17.88C6.05 17.9733 6.09833 18.0566 6.195 18.13C6.295 18.2 6.42667 18.235 6.59 18.235C6.71333 18.235 6.80167 18.21 6.855 18.16C6.90833 18.1066 6.935 18.0483 6.935 17.985C6.935 17.9116 6.90167 17.8566 6.835 17.82C6.76833 17.7833 6.64667 17.7383 6.47 17.685L6.325 17.645C5.995 17.545 5.71833 17.4116 5.495 17.245C5.27167 17.0783 5.16 16.8366 5.16 16.52C5.16 16.31 5.21667 16.125 5.33 15.965C5.44333 15.8016 5.59833 15.6766 5.795 15.59C5.995 15.5033 6.21833 15.46 6.465 15.46C6.725 15.46 6.96 15.5083 7.17 15.605C7.38333 15.7016 7.55 15.8383 7.67 16.015C7.79333 16.1916 7.855 16.3933 7.855 16.62V16.665C7.855 16.6883 7.84833 16.7066 7.835 16.72C7.82167 16.7333 7.80333 16.74 7.78 16.74H7.005C6.98167 16.74 6.96333 16.7333 6.95 16.72C6.93667 16.7066 6.93 16.6883 6.93 16.665V16.66C6.93 16.56 6.885 16.47 6.795 16.39C6.705 16.3066 6.58333 16.265 6.43 16.265C6.32333 16.265 6.23833 16.2866 6.175 16.33C6.115 16.3733 6.085 16.4333 6.085 16.51C6.085 16.57 6.10667 16.6216 6.15 16.665C6.19667 16.705 6.26667 16.745 6.36 16.785C6.45333 16.8216 6.59667 16.87 6.79 16.93C6.81667 16.94 6.93333 16.9766 7.14 17.04C7.35 17.1 7.525 17.2116 7.665 17.375C7.805 17.535 7.875 17.73 7.875 17.96C7.875 18.1833 7.81833 18.3766 7.705 18.54C7.59167 18.7 7.43333 18.8233 7.23 18.91C7.02667 18.9966 6.79 19.04 6.52 19.04Z" fill="white"/>
<path d="M9.14633 19C9.12633 19 9.10799 18.995 9.09133 18.985C9.07466 18.9716 9.06466 18.955 9.06133 18.935L8.07633 15.585C8.07299 15.5783 8.07133 15.57 8.07133 15.56C8.07133 15.52 8.09466 15.5 8.14133 15.5H8.99633C9.03966 15.5 9.06633 15.5216 9.07633 15.565L9.57633 17.675C9.57966 17.6883 9.58466 17.695 9.59133 17.695C9.59799 17.695 9.60299 17.6883 9.60633 17.675L10.0913 15.565C10.1013 15.5216 10.128 15.5 10.1713 15.5H11.0063C11.033 15.5 11.0513 15.5083 11.0613 15.525C11.0747 15.5383 11.078 15.5583 11.0713 15.585L10.0763 18.935C10.073 18.955 10.063 18.9716 10.0463 18.985C10.0297 18.995 10.0113 19 9.99133 19H9.14633Z" fill="white"/>
<path d="M12.6138 19.04C12.3405 19.04 12.0988 18.985 11.8888 18.875C11.6821 18.765 11.5205 18.61 11.4038 18.41C11.2905 18.21 11.2338 17.98 11.2338 17.72V16.775C11.2338 16.515 11.2905 16.2866 11.4038 16.09C11.5205 15.89 11.6821 15.735 11.8888 15.625C12.0988 15.515 12.3405 15.46 12.6138 15.46C12.8805 15.46 13.1188 15.5133 13.3288 15.62C13.5388 15.7233 13.7005 15.865 13.8138 16.045C13.9305 16.225 13.9888 16.4216 13.9888 16.635V16.64C13.9888 16.6633 13.9821 16.6816 13.9688 16.695C13.9555 16.7083 13.9371 16.715 13.9138 16.715H13.1288C13.0788 16.715 13.0538 16.7 13.0538 16.67C13.0538 16.56 13.0138 16.465 12.9338 16.385C12.8571 16.305 12.7505 16.265 12.6138 16.265C12.4805 16.265 12.3738 16.31 12.2938 16.4C12.2138 16.4866 12.1738 16.6033 12.1738 16.75V17.75C12.1738 17.8933 12.2188 18.01 12.3088 18.1C12.4021 18.19 12.5171 18.235 12.6538 18.235C12.7771 18.235 12.8771 18.2016 12.9538 18.135C13.0338 18.065 13.0738 17.97 13.0738 17.85V17.785C13.0738 17.7683 13.0655 17.76 13.0488 17.76H12.6088C12.5855 17.76 12.5671 17.7533 12.5538 17.74C12.5405 17.7266 12.5338 17.7083 12.5338 17.685V17.085C12.5338 17.0616 12.5405 17.0433 12.5538 17.03C12.5671 17.0166 12.5855 17.01 12.6088 17.01H13.9138C13.9371 17.01 13.9555 17.0166 13.9688 17.03C13.9821 17.0433 13.9888 17.0616 13.9888 17.085V17.77C13.9888 18.0166 13.9305 18.2366 13.8138 18.43C13.7005 18.6233 13.5388 18.7733 13.3288 18.88C13.1221 18.9866 12.8838 19.04 12.6138 19.04Z" fill="white"/>
</svg>
