<svg width="28" height="28" viewBox="0 0 28 28" fill="none" xmlns="http://www.w3.org/2000/svg">
<path d="M19 9.8H23.2V23.2H6.8V4.8H18.2V9V9.8H19Z" stroke="#243B54" stroke-width="1.6"/>
<path d="M18.5 4.5L23.5 9.5" stroke="#243B54" stroke-width="1.6"/>
<path d="M4 14H15V20.5H4V14Z" fill="#243B54"/>
<path d="M6.72005 15.5C6.95672 15.5 7.16505 15.5483 7.34505 15.645C7.52505 15.7383 7.66339 15.8733 7.76005 16.05C7.86005 16.2233 7.91005 16.4233 7.91005 16.65C7.91005 16.8733 7.85839 17.07 7.75505 17.24C7.65172 17.41 7.50672 17.5417 7.32005 17.635C7.13339 17.7283 6.91839 17.775 6.67505 17.775H6.14505C6.12839 17.775 6.12005 17.7833 6.12005 17.8V18.925C6.12005 18.9483 6.11339 18.9667 6.10005 18.98C6.08672 18.9933 6.06839 19 6.04505 19H5.25505C5.23172 19 5.21339 18.9933 5.20005 18.98C5.18672 18.9667 5.18005 18.9483 5.18005 18.925V15.575C5.18005 15.5517 5.18672 15.5333 5.20005 15.52C5.21339 15.5067 5.23172 15.5 5.25505 15.5H6.72005ZM6.56505 17.025C6.68839 17.025 6.78672 16.9933 6.86005 16.93C6.93672 16.8633 6.97505 16.7767 6.97505 16.67C6.97505 16.56 6.93672 16.4717 6.86005 16.405C6.78672 16.3383 6.68839 16.305 6.56505 16.305H6.14505C6.12839 16.305 6.12005 16.3133 6.12005 16.33V17C6.12005 17.0167 6.12839 17.025 6.14505 17.025H6.56505Z" fill="white"/>
<path d="M8.3681 19C8.34477 19 8.32643 18.9933 8.3131 18.98C8.29977 18.9667 8.2931 18.9483 8.2931 18.925V15.575C8.2931 15.5517 8.29977 15.5333 8.3131 15.52C8.32643 15.5067 8.34477 15.5 8.3681 15.5H9.6531C9.9231 15.5 10.1614 15.5467 10.3681 15.64C10.5781 15.7333 10.7398 15.865 10.8531 16.035C10.9664 16.205 11.0231 16.4017 11.0231 16.625V17.875C11.0231 18.0983 10.9664 18.295 10.8531 18.465C10.7398 18.635 10.5781 18.7667 10.3681 18.86C10.1614 18.9533 9.9231 19 9.6531 19H8.3681ZM9.2331 18.17C9.2331 18.1867 9.24143 18.195 9.2581 18.195H9.6881C9.80143 18.195 9.89477 18.1517 9.9681 18.065C10.0414 17.975 10.0798 17.8583 10.0831 17.715V16.785C10.0831 16.6417 10.0464 16.5267 9.9731 16.44C9.89977 16.35 9.8031 16.305 9.6831 16.305H9.2581C9.24143 16.305 9.2331 16.3133 9.2331 16.33V18.17Z" fill="white"/>
<path d="M14.0139 16.23C14.0139 16.2533 14.0073 16.2717 13.9939 16.285C13.9806 16.2983 13.9623 16.305 13.9389 16.305H12.4489C12.4323 16.305 12.4239 16.3133 12.4239 16.33V16.8C12.4239 16.8167 12.4323 16.825 12.4489 16.825H13.3739C13.3973 16.825 13.4156 16.8317 13.4289 16.845C13.4423 16.8583 13.4489 16.8767 13.4489 16.9V17.55C13.4489 17.5733 13.4423 17.5917 13.4289 17.605C13.4156 17.6183 13.3973 17.625 13.3739 17.625H12.4489C12.4323 17.625 12.4239 17.6333 12.4239 17.65V18.925C12.4239 18.9483 12.4173 18.9667 12.4039 18.98C12.3906 18.9933 12.3723 19 12.3489 19H11.5589C11.5356 19 11.5173 18.9933 11.5039 18.98C11.4906 18.9667 11.4839 18.9483 11.4839 18.925V15.575C11.4839 15.5517 11.4906 15.5333 11.5039 15.52C11.5173 15.5067 11.5356 15.5 11.5589 15.5H13.9389C13.9623 15.5 13.9806 15.5067 13.9939 15.52C14.0073 15.5333 14.0139 15.5517 14.0139 15.575V16.23Z" fill="white"/>
</svg>
