<svg width="24" height="24" viewBox="0 0 24 24" fill="none" xmlns="http://www.w3.org/2000/svg">
<path d="M15.4343 7.43431C15.1219 7.74673 15.1219 8.25327 15.4343 8.56569C15.7467 8.8781 16.2533 8.8781 16.5657 8.56569L15.4343 7.43431ZM23.8 1C23.8 0.558172 23.4418 0.2 23 0.2L15.8 0.200001C15.3582 0.200001 15 0.558173 15 1C15 1.44183 15.3582 1.8 15.8 1.8L22.2 1.8L22.2 8.2C22.2 8.64183 22.5582 9 23 9C23.4418 9 23.8 8.64183 23.8 8.2L23.8 1ZM16.5657 8.56569L23.5657 1.56569L22.4343 0.434315L15.4343 7.43431L16.5657 8.56569Z" fill="#243B54"/>
<path d="M7.43431 8.56569C7.74673 8.8781 8.25327 8.8781 8.56569 8.56569C8.8781 8.25327 8.8781 7.74673 8.56569 7.43431L7.43431 8.56569ZM1 0.2C0.558172 0.2 0.2 0.558172 0.2 1L0.200001 8.2C0.200001 8.64183 0.558173 9 1 9C1.44183 9 1.8 8.64183 1.8 8.2L1.8 1.8L8.2 1.8C8.64183 1.8 9 1.44183 9 1C9 0.558173 8.64183 0.200001 8.2 0.200001L1 0.2ZM8.56569 7.43431L1.56569 0.434315L0.434315 1.56569L7.43431 8.56569L8.56569 7.43431Z" fill="#243B54"/>
<path d="M16.5657 15.4343C16.2533 15.1219 15.7467 15.1219 15.4343 15.4343C15.1219 15.7467 15.1219 16.2533 15.4343 16.5657L16.5657 15.4343ZM23 23.8C23.4418 23.8 23.8 23.4418 23.8 23L23.8 15.8C23.8 15.3582 23.4418 15 23 15C22.5582 15 22.2 15.3582 22.2 15.8L22.2 22.2L15.8 22.2C15.3582 22.2 15 22.5582 15 23C15 23.4418 15.3582 23.8 15.8 23.8L23 23.8ZM15.4343 16.5657L22.4343 23.5657L23.5657 22.4343L16.5657 15.4343L15.4343 16.5657Z" fill="#243B54"/>
<path d="M8.56569 16.5657C8.8781 16.2533 8.8781 15.7467 8.56569 15.4343C8.25327 15.1219 7.74673 15.1219 7.43431 15.4343L8.56569 16.5657ZM0.2 23C0.2 23.4418 0.558172 23.8 1 23.8L8.2 23.8C8.64183 23.8 9 23.4418 9 23C9 22.5582 8.64183 22.2 8.2 22.2L1.8 22.2L1.8 15.8C1.8 15.3582 1.44183 15 1 15C0.558173 15 0.200001 15.3582 0.200001 15.8L0.2 23ZM7.43431 15.4343L0.434315 22.4343L1.56569 23.5657L8.56569 16.5657L7.43431 15.4343Z" fill="#243B54"/>
</svg>
