<svg width="28" height="28" viewBox="0 0 28 28" fill="none" xmlns="http://www.w3.org/2000/svg">
<path d="M10.1234 16.7452C9.81101 17.0576 9.81101 17.5641 10.1234 17.8766C10.4359 18.189 10.9424 18.189 11.2548 17.8766L10.1234 16.7452ZM23.8 5C23.8 4.55817 23.4418 4.2 23 4.2L15.8 4.2C15.3582 4.2 15 4.55817 15 5C15 5.44183 15.3582 5.8 15.8 5.8L22.2 5.8L22.2 12.2C22.2 12.6418 22.5582 13 23 13C23.4418 13 23.8 12.6418 23.8 12.2L23.8 5ZM11.2548 17.8766L23.5657 5.56569L22.4343 4.43432L10.1234 16.7452L11.2548 17.8766Z" fill="#243B54"/>
<path d="M11.8537 8H7C5.89543 8 5 8.89543 5 10V21C5 22.1046 5.89543 23 7 23H18C19.1046 23 20 22.1046 20 21V16.1463" stroke="#243B54" stroke-width="1.6" stroke-linecap="round" stroke-linejoin="round"/>
</svg>
