<svg width="28" height="28" viewBox="0 0 28 28" fill="none" xmlns="http://www.w3.org/2000/svg">
<path d="M19 9.8H23.2V23.2H6.8V4.8H18.2V9V9.8H19Z" stroke="#243B54" stroke-width="1.6"/>
<path d="M18.5 4.5L23.5 9.5" stroke="#243B54" stroke-width="1.6"/>
<path d="M4 14H15V20.5H4V14Z" fill="#243B54"/>
<path d="M6.38 19.04C6.10667 19.04 5.865 18.9866 5.655 18.88C5.44833 18.7733 5.28667 18.6233 5.17 18.43C5.05667 18.2333 5 18.0066 5 17.75V16.74C5 16.4866 5.05667 16.2633 5.17 16.07C5.28667 15.8766 5.44833 15.7266 5.655 15.62C5.865 15.5133 6.10667 15.46 6.38 15.46C6.65333 15.46 6.89333 15.51 7.1 15.61C7.31 15.71 7.47167 15.8516 7.585 16.035C7.70167 16.215 7.76 16.425 7.76 16.665C7.76 16.695 7.735 16.7133 7.685 16.72L6.895 16.77H6.88C6.84 16.77 6.82 16.7516 6.82 16.715C6.82 16.5783 6.78 16.47 6.7 16.39C6.62 16.3066 6.51333 16.265 6.38 16.265C6.24667 16.265 6.14 16.3066 6.06 16.39C5.98 16.47 5.94 16.5783 5.94 16.715V17.79C5.94 17.9233 5.98 18.0316 6.06 18.115C6.14 18.195 6.24667 18.235 6.38 18.235C6.51333 18.235 6.62 18.195 6.7 18.115C6.78 18.0316 6.82 17.9233 6.82 17.79C6.82 17.77 6.82667 17.755 6.84 17.745C6.85333 17.735 6.87167 17.7316 6.895 17.735L7.685 17.775C7.735 17.7783 7.76 17.795 7.76 17.825C7.76 18.065 7.70167 18.2766 7.585 18.46C7.47167 18.6433 7.31 18.7866 7.1 18.89C6.89333 18.99 6.65333 19.04 6.38 19.04Z" fill="white"/>
<path d="M9.41687 19.04C9.13687 19.04 8.89188 18.995 8.68187 18.905C8.47187 18.8116 8.30854 18.68 8.19187 18.51C8.07854 18.34 8.02187 18.1433 8.02187 17.92V17.85C8.02187 17.8266 8.02854 17.8083 8.04187 17.795C8.05521 17.7816 8.07354 17.775 8.09687 17.775H8.87187C8.89521 17.775 8.91354 17.7816 8.92688 17.795C8.94021 17.8083 8.94688 17.8266 8.94688 17.85V17.88C8.94688 17.9733 8.99521 18.0566 9.09188 18.13C9.19187 18.2 9.32354 18.235 9.48688 18.235C9.61021 18.235 9.69854 18.21 9.75187 18.16C9.80521 18.1066 9.83187 18.0483 9.83187 17.985C9.83187 17.9116 9.79854 17.8566 9.73187 17.82C9.66521 17.7833 9.54354 17.7383 9.36687 17.685L9.22188 17.645C8.89188 17.545 8.61521 17.4116 8.39188 17.245C8.16854 17.0783 8.05687 16.8366 8.05687 16.52C8.05687 16.31 8.11354 16.125 8.22687 15.965C8.34021 15.8016 8.49521 15.6766 8.69187 15.59C8.89188 15.5033 9.11521 15.46 9.36188 15.46C9.62188 15.46 9.85687 15.5083 10.0669 15.605C10.2802 15.7016 10.4469 15.8383 10.5669 16.015C10.6902 16.1916 10.7519 16.3933 10.7519 16.62V16.665C10.7519 16.6883 10.7452 16.7066 10.7319 16.72C10.7185 16.7333 10.7002 16.74 10.6769 16.74H9.90188C9.87854 16.74 9.86021 16.7333 9.84688 16.72C9.83354 16.7066 9.82687 16.6883 9.82687 16.665V16.66C9.82687 16.56 9.78188 16.47 9.69187 16.39C9.60187 16.3066 9.48021 16.265 9.32688 16.265C9.22021 16.265 9.13521 16.2866 9.07188 16.33C9.01188 16.3733 8.98187 16.4333 8.98187 16.51C8.98187 16.57 9.00354 16.6216 9.04688 16.665C9.09354 16.705 9.16354 16.745 9.25688 16.785C9.35021 16.8216 9.49354 16.87 9.68687 16.93C9.71354 16.94 9.83021 16.9766 10.0369 17.04C10.2469 17.1 10.4219 17.2116 10.5619 17.375C10.7019 17.535 10.7719 17.73 10.7719 17.96C10.7719 18.1833 10.7152 18.3766 10.6019 18.54C10.4885 18.7 10.3302 18.8233 10.1269 18.91C9.92354 18.9966 9.68687 19.04 9.41687 19.04Z" fill="white"/>
<path d="M11.9432 19C11.9232 19 11.9049 18.995 11.8882 18.985C11.8715 18.9716 11.8615 18.955 11.8582 18.935L10.8732 15.585C10.8699 15.5783 10.8682 15.57 10.8682 15.56C10.8682 15.52 10.8915 15.5 10.9382 15.5H11.7932C11.8365 15.5 11.8632 15.5216 11.8732 15.565L12.3732 17.675C12.3765 17.6883 12.3815 17.695 12.3882 17.695C12.3949 17.695 12.3999 17.6883 12.4032 17.675L12.8882 15.565C12.8982 15.5216 12.9249 15.5 12.9682 15.5H13.8032C13.8299 15.5 13.8482 15.5083 13.8582 15.525C13.8715 15.5383 13.8749 15.5583 13.8682 15.585L12.8732 18.935C12.8699 18.955 12.8599 18.9716 12.8432 18.985C12.8265 18.995 12.8082 19 12.7882 19H11.9432Z" fill="white"/>
</svg>
