<svg width="28" height="28" viewBox="0 0 28 28" fill="none" xmlns="http://www.w3.org/2000/svg">
<mask id="path-1-inside-1_237_933" fill="white">
<rect x="2" y="2" width="24" height="18.75" rx="1"/>
</mask>
<rect x="2" y="2" width="24" height="18.75" rx="1" stroke="#243B54" stroke-width="3.2" stroke-linejoin="round" mask="url(#path-1-inside-1_237_933)"/>
<rect x="7" y="12" width="1" height="3" rx="0.5" stroke="#243B54" stroke-width="1.6" stroke-linejoin="round"/>
<rect x="11" y="10" width="1" height="5" rx="0.5" stroke="#243B54" stroke-width="1.6" stroke-linejoin="round"/>
<rect x="15" y="8" width="1" height="7" rx="0.5" stroke="#243B54" stroke-width="1.6" stroke-linejoin="round"/>
<rect x="19" y="10" width="1" height="5" rx="0.5" stroke="#243B54" stroke-width="1.6" stroke-linejoin="round"/>
<path d="M8.82029 25.5781C8.58728 25.9535 8.70272 26.4467 9.07811 26.6797C9.4535 26.9127 9.94671 26.7973 10.1797 26.4219L8.82029 25.5781ZM12.1953 20.1406L8.82029 25.5781L10.1797 26.4219L13.5547 20.9844L12.1953 20.1406Z" fill="#243B54"/>
<path d="M19.1797 25.5781C19.4127 25.9535 19.2973 26.4467 18.9219 26.6797C18.5465 26.9127 18.0533 26.7973 17.8203 26.4219L19.1797 25.5781ZM15.8047 20.1406L19.1797 25.5781L17.8203 26.4219L14.4453 20.9844L15.8047 20.1406Z" fill="#243B54"/>
<path d="M13.2 24.5C13.2 24.9418 13.5582 25.3 14 25.3C14.4418 25.3 14.8 24.9418 14.8 24.5H13.2ZM13.2 20.5625V24.5H14.8V20.5625H13.2Z" fill="#243B54"/>
</svg>
